<svg width="18" height="18" viewBox="0 0 18 18" fill="none" xmlns="http://www.w3.org/2000/svg">
<path d="M13.4805 3.79891C14.1803 3.79891 14.7472 3.24384 14.7472 2.5528V1.24858C14.7472 0.556918 14.181 0 13.4805 0C12.7801 0 12.2145 0.556299 12.2145 1.24858V2.55341C12.2151 3.24384 12.7807 3.79891 13.4805 3.79891Z" fill="#FBB400"/>
<path d="M17.9806 2.15962H15.4309V2.79442C15.4309 3.84212 14.5674 4.69573 13.5027 4.69573C12.4366 4.69573 11.5751 3.84212 11.5751 2.79442V2.15962H6.42996V2.79442C6.42996 3.84212 5.56523 4.69573 4.5011 4.69573C3.43696 4.69573 2.57286 3.84274 2.57286 2.79442V2.15962L0 2.1281V17.9999H1.28674H16.7151L18 17.9962L17.9806 2.15962ZM16.7139 16.7359H1.28674V6.59642H16.7151V16.7359H16.7139Z" fill="#FBB400"/>
<path d="M4.48063 3.79891C5.18044 3.79891 5.74794 3.24384 5.74794 2.5528V1.24858C5.74794 0.556299 5.18044 0 4.48063 0C3.78083 0 3.21521 0.556299 3.21521 1.24858V2.55341C3.21521 3.24384 3.7802 3.79891 4.48063 3.79891Z" fill="#FBB400"/>
<path d="M8.45965 7.95703H6.43359V9.71988H8.45965V7.95703Z" fill="#FBB400"/>
<path d="M11.7375 7.95679H9.70959V9.71964H11.7375V7.95679Z" fill="#FBB400"/>
<path d="M14.7736 7.95703H12.7476V9.71988H14.7736V7.95703Z" fill="#FBB400"/>
<path d="M8.45965 10.8843H6.43359V12.6459H8.45965V10.8843Z" fill="#FBB400"/>
<path d="M11.7375 10.8843H9.70959V12.6459H11.7375V10.8843Z" fill="#FBB400"/>
<path d="M14.7736 10.8843H12.7476V12.6459H14.7736V10.8843Z" fill="#FBB400"/>
<path d="M8.45965 13.8696H6.43359V15.6312H8.45965V13.8696Z" fill="#FBB400"/>
<path d="M5.24001 10.8843H3.21521V12.6459H5.24001V10.8843Z" fill="#FBB400"/>
<path d="M5.24001 13.8696H3.21521V15.6312H5.24001V13.8696Z" fill="#FBB400"/>
<path d="M11.7375 13.8696H9.70959V15.6312H11.7375V13.8696Z" fill="#FBB400"/>
<path d="M14.7736 13.8696H12.7476V15.6312H14.7736V13.8696Z" fill="#FBB400"/>
</svg>
